<svg id="Layer_1" data-name="Layer 1" xmlns="http://www.w3.org/2000/svg" xmlns:xlink="http://www.w3.org/1999/xlink" viewBox="0 0 1920 1080"><defs><style>.cls-1,.cls-10,.cls-11,.cls-4,.cls-9{fill:none;}.cls-2{clip-path:url(#clip-path);}.cls-3{fill:#fff;}.cls-4{stroke:#32a6bd;}.cls-10,.cls-11,.cls-4,.cls-9{stroke-miterlimit:10;}.cls-4,.cls-9{stroke-width:7px;}.cls-5{fill:url(#linear-gradient);}.cls-6{fill:url(#linear-gradient-2);}.cls-7{clip-path:url(#clip-path-2);}.cls-8{fill:url(#linear-gradient-3);}.cls-10,.cls-11,.cls-9{stroke:#d74c87;}.cls-10{stroke-width:4px;}.cls-11{stroke-width:6px;}</style><clipPath id="clip-path"><polygon class="cls-1" points="3962 56 3962 584 2042 584 2042 407 3962 56"/></clipPath><linearGradient id="linear-gradient" x1="210.25" y1="1290.25" x2="1710.75" y2="-210.25" gradientTransform="translate(1500.5 -420.5) rotate(90)" gradientUnits="userSpaceOnUse"><stop offset="0" stop-color="#f5c4c9"/><stop offset="0.05" stop-color="#f1b8c4"/><stop offset="0.27" stop-color="#e28baf"/><stop offset="0.48" stop-color="#d6689f"/><stop offset="0.68" stop-color="#ce4f93"/><stop offset="0.86" stop-color="#c93f8c"/><stop offset="1" stop-color="#c73a8a"/></linearGradient><linearGradient id="linear-gradient-2" x1="-9.61" y1="814.98" x2="1910.36" y2="1019.62" gradientUnits="userSpaceOnUse"><stop offset="0" stop-color="#c7197c"/><stop offset="0.25" stop-color="#bb1a77"/><stop offset="0.71" stop-color="#9a1d69"/><stop offset="1" stop-color="#811f5f"/></linearGradient><clipPath id="clip-path-2"><polygon class="cls-1" points="0 552 0 1080 1920 1080 1920 903 0 552"/></clipPath><linearGradient id="linear-gradient-3" x1="795.36" y1="178.44" x2="824.67" y2="181.56" xlink:href="#linear-gradient-2"/></defs><title>bg-section2</title><g class="cls-2"><circle class="cls-3" cx="897.5" cy="562.5" r="10.5"/><polyline class="cls-4" points="3962 320 897 563 3962 145"/><line class="cls-4" x1="3962" y1="510" x2="897" y2="563"/></g><rect class="cls-5" x="420.5" y="-420.5" width="1080" height="1921" transform="translate(420.5 1500.5) rotate(-90)"/><polygon class="cls-6" points="0 552 0 1080 1920 1080 1920 903 0 552"/><g class="cls-7"><circle class="cls-8" cx="810" cy="180" r="15"/><polyline class="cls-9" points="593 1080 810 180 0 1080"/><polyline class="cls-10" points="1467 1080 810 180 1056 1080"/><line class="cls-10" x1="1839" y1="1080" x2="810" y2="180"/><polyline class="cls-11" points="0 816 3065 1059 0 641"/><line class="cls-11" y1="1006" x2="3065" y2="1059"/></g></svg>