<svg id="Layer_1" data-name="Layer 1" xmlns="http://www.w3.org/2000/svg" xmlns:xlink="http://www.w3.org/1999/xlink" viewBox="0 0 1920 1080"><defs><style>.cls-1,.cls-4{fill:none;}.cls-2{clip-path:url(#clip-path);}.cls-3{fill:#fff;}.cls-4{stroke:#32a6bd;stroke-miterlimit:10;stroke-width:7px;}.cls-5{fill:url(#linear-gradient);}.cls-6{fill:url(#linear-gradient-2);}.cls-7{fill:url(#linear-gradient-3);}.cls-8{fill:url(#linear-gradient-4);}</style><clipPath id="clip-path"><polygon class="cls-1" points="3986 514 3986 1042 2103 1042 2103 865 3986 514"/></clipPath><linearGradient id="linear-gradient" x1="5.96" y1="1090.32" x2="1914.04" y2="-11.32" gradientUnits="userSpaceOnUse"><stop offset="0" stop-color="#2bb7e2"/><stop offset="0.36" stop-color="#26a2d6"/><stop offset="1" stop-color="#1b75bb"/></linearGradient><linearGradient id="linear-gradient-2" x1="73" y1="924" x2="73" y2="1078.31" gradientTransform="matrix(-1, 0, 0, 1, 1002, 0)" gradientUnits="userSpaceOnUse"><stop offset="0" stop-color="#a72070"/><stop offset="0.18" stop-color="#b6347a"/><stop offset="0.41" stop-color="#c24482"/><stop offset="0.66" stop-color="#c94d87"/><stop offset="1" stop-color="#cb5088"/></linearGradient><linearGradient id="linear-gradient-3" x1="557.34" y1="898" x2="557.34" y2="1079" gradientTransform="matrix(-1, 0, 0, 1, 1002, 0)" gradientUnits="userSpaceOnUse"><stop offset="0" stop-color="#daa62c"/><stop offset="0.39" stop-color="#dda82c"/><stop offset="0.66" stop-color="#e6b02d"/><stop offset="0.89" stop-color="#f5bd2e"/><stop offset="1" stop-color="#ffc52f"/></linearGradient><linearGradient id="linear-gradient-4" x1="1343" y1="842.66" x2="1343" y2="1079" gradientUnits="userSpaceOnUse"><stop offset="0" stop-color="#20adfa"/><stop offset="0.3" stop-color="#23aefa"/><stop offset="0.51" stop-color="#2cb2fa"/><stop offset="0.69" stop-color="#3bb9fb"/><stop offset="0.86" stop-color="#51c3fb"/><stop offset="1" stop-color="#6bcffc"/></linearGradient></defs><title>bg-section4</title><g class="cls-2"><ellipse class="cls-3" cx="980.56" cy="1020.5" rx="10.3" ry="10.5"/><polyline class="cls-4" points="3986 778 980.07 1021 3986 603"/><line class="cls-4" x1="3986" y1="968" x2="980.07" y2="1021"/></g><rect class="cls-5" y="-1" width="1920" height="1081"/><path class="cls-6" d="M1523,1072l-57-68c-28-39-77-71-163-44-42.15,13.23-112.08,34.27-148.18,37.35l-118.19,12.47c-60.88,6.42-123.36-.68-177-20.12l-69.4-25.15c-43.36-15.72-80.88-28.73-123.2-35.5-39.08-6.25-162-16.62-225.35,39.64C433.59,975.88,335,1075.55,335,1078.31H516L1518,1074"/><path class="cls-7" d="M887.33,1079l-71.65-40.15a181,181,0,0,0-48.41-18.66c-43.73-9.92-101-14.07-137.12-9.25L512,1030.5a269.24,269.24,0,0,1-177-31.56l-69.4-39.44c-43.36-24.65-80.88-45.06-123.2-55.67a193.46,193.46,0,0,0-117.81,7.54C12,916.3,2,921.58,2,925.9V1079H887.33"/><path class="cls-8" d="M765,1079l93.56-52.43a236.4,236.4,0,0,1,63.21-24.37c57.1-13,131.9-18.37,179-12.08l154.33,25.54a351.56,351.56,0,0,0,231.12-41.2l90.61-51.5c56.62-32.18,105.61-58.83,160.87-72.69a252.61,252.61,0,0,1,153.83,9.85c16.35,6.43,29.43,13.34,29.43,19V1079H765"/></svg>