<svg id="Layer_1" data-name="Layer 1" xmlns="http://www.w3.org/2000/svg" xmlns:xlink="http://www.w3.org/1999/xlink" viewBox="0 0 1920 1080"><defs><style>.cls-1,.cls-4{fill:none;}.cls-2{clip-path:url(#clip-path);}.cls-3{fill:#fff;}.cls-4{stroke:#32a6bd;stroke-miterlimit:10;stroke-width:7px;}.cls-5{fill:url(#linear-gradient);}.cls-6{opacity:0.32;fill:url(#linear-gradient-2);}</style><clipPath id="clip-path"><polygon class="cls-1" points="3962 56 3962 584 2042 584 2042 407 3962 56"/></clipPath><linearGradient id="linear-gradient" x1="5.96" y1="1090.32" x2="1914.04" y2="-11.32" gradientUnits="userSpaceOnUse"><stop offset="0.4" stop-color="#2bb7e2"/><stop offset="0.55" stop-color="#2ab3e0"/><stop offset="0.69" stop-color="#27a7d9"/><stop offset="0.84" stop-color="#2293cd"/><stop offset="0.99" stop-color="#1c77bc"/><stop offset="1" stop-color="#1b75bb"/></linearGradient><linearGradient id="linear-gradient-2" y1="720.63" x2="1920" y2="720.63" gradientUnits="userSpaceOnUse"><stop offset="0" stop-color="#2bb7e2"/><stop offset="0.36" stop-color="#26a2d6"/><stop offset="1" stop-color="#1b75bb"/></linearGradient></defs><title>bg-section1</title><g class="cls-2"><circle class="cls-3" cx="897.5" cy="562.5" r="10.5"/><polyline class="cls-4" points="3962 320 897 563 3962 145"/><line class="cls-4" x1="3962" y1="510" x2="897" y2="563"/></g><path class="cls-1" d="M-840.82-710.27l-88.57,62.85a189,189,0,0,0-78.81,135.95l-13,134.31A189.12,189.12,0,0,1-1033.57-326l-37.69,95.47a190.14,190.14,0,0,0,25.37,184.4l34.65,45.9a190.58,190.58,0,0,1,37.69,133.29h0c-7.65,78.49,34.11,153.79,105,189.32l147.42,73.89a192.41,192.41,0,0,1,49.45,35.57l85.23,84.75a192.4,192.4,0,0,0,128,55.81l298,11.75a191.68,191.68,0,0,0,21.76-.38l248-18.44A189.79,189.79,0,0,0,266.74,457.94L353.41,276.2a189.05,189.05,0,0,1,51.1-65.07L540.89,99.78A189.19,189.19,0,0,0,603.51-97.43L554.9-273.06A189.77,189.77,0,0,1,552.11-363L581-499.65c16.29-77-16.72-156.24-83-199.41L302.38-826.35l-265.78-175a191.87,191.87,0,0,0-181.37-16.13l-177.35,76.44a191.44,191.44,0,0,1-120.22,10.33l-6.17-1.47a191,191,0,0,0-164.9,37.42L-830.88-717.83Q-835.73-713.89-840.82-710.27Z"/><rect class="cls-5" y="-1" width="1920" height="1081"/><path class="cls-3" d="M.95,170.79c.16,9.4,41,24.78,74.46,35.81A241.63,241.63,0,0,0,214,210.85c19.33-5.22,36.76-12.28,48.69-20.76h0C299.29,164,344.2,147,392.16,141h0c89.68-11.23,168.63-54.5,215.49-118.1L626-2H-.34S0,115.72.95,170.79Z"/><path class="cls-6" d="M1920,602.65V1079H41v2.1L0,1080,120,839c51-106,223.15-90.26,289.44-65.13l5.4,2a379.1,379.1,0,0,0,446-138.56l87-125.61a285.9,285.9,0,0,1,215-122.36l61.72-13.14C1485.74,320.63,1749.27,412.41,1920,602.65Z"/></svg>